<svg width="21" height="23" viewBox="0 0 21 23" fill="none" xmlns="http://www.w3.org/2000/svg">
<path d="M19.9188 9.50045L11.4751 9.5C11.1023 9.5 10.8 9.83575 10.8 10.25V13.247C10.8 13.6612 11.1023 13.997 11.4751 13.997H16.2301C15.7094 15.4983 14.7376 16.7556 13.4977 17.5545L15.5252 21.4542C18.7776 19.3643 20.7005 15.6973 20.7005 11.5925C20.7005 11.008 20.6617 10.5902 20.5841 10.1197C20.5252 9.76225 20.2459 9.50045 19.9188 9.50045Z" fill="#167EE6"/>
<path d="M10.3495 18.5C8.02256 18.5 5.99112 17.0874 4.90007 14.9971L1.39038 17.2447C3.17644 20.684 6.52231 23 10.3495 23C12.2271 23 13.9987 22.4384 15.5248 21.4596V21.4542L13.4973 17.5546C12.5698 18.1522 11.4966 18.5 10.3495 18.5Z" fill="#12B347"/>
<path d="M15.5252 21.4597V21.4544L13.4977 17.5547C12.5703 18.1523 11.4971 18.5002 10.35 18.5002V23.0002C12.2275 23.0002 13.9992 22.4385 15.5252 21.4597Z" fill="#0F993E"/>
<path d="M4.05018 11.5C4.05018 10.2256 4.3632 9.03337 4.90098 8.00299L1.39129 5.75537C0.505474 7.44565 0 9.40864 0 11.5C0 13.5914 0.505474 15.5544 1.39129 17.2447L4.90098 14.9971C4.3632 13.9667 4.05018 12.7744 4.05018 11.5Z" fill="#FFD500"/>
<path d="M10.3494 4.5C11.8669 4.5 13.2607 5.09908 14.3494 6.09558C14.618 6.3414 15.0083 6.32365 15.2544 6.0503L17.1656 3.92685C17.4447 3.61671 17.4248 3.10904 17.1266 2.82163C15.3026 1.06344 12.9292 0 10.3494 0C6.52218 0 3.17632 2.31604 1.39026 5.75535L4.89995 8.00297C5.991 5.91262 8.02243 4.5 10.3494 4.5Z" fill="#FF4B26"/>
<path d="M14.3499 6.09558C14.6185 6.3414 15.0089 6.32365 15.2549 6.0503L17.1661 3.92685C17.4452 3.61671 17.4253 3.10904 17.1272 2.82163C15.3031 1.06339 12.9298 0 10.35 0V4.5C11.8674 4.5 13.2612 5.09908 14.3499 6.09558Z" fill="#D93F21"/>
</svg>
